<svg version="1.1" xmlns="http://www.w3.org/2000/svg" xmlns:xlink="http://www.w3.org/1999/xlink" width="48" height="48"><defs><linearGradient x1="10.46951" y1="10.47479" x2="52.70907" y2="52.70378" gradientUnits="userSpaceOnUse" id="color-1"><stop offset="0.09" stop-color="#000000" stop-opacity="0.41"></stop><stop offset="1" stop-color="#000000" stop-opacity="0"></stop></linearGradient><filter id="dropshadow-base"><feColorMatrix type="matrix" values="0 0 0 0 0  0 0 0 0 0  0 0 0 0 0  0 0 0 .8 0"></feColorMatrix> <feOffset dx="0" dy="1"></feOffset> <feGaussianBlur stdDeviation="1"></feGaussianBlur> <feComposite in="SourceGraphic"></feComposite></filter><filter id="dropshadow-banner" x="-10%" y="-10%" width="120%" height="130%"><feColorMatrix type="matrix" values="0 0 0 0 0  0 0 0 0 0  0 0 0 0 0  0 0 0 .4 0"></feColorMatrix> <feOffset dx="0" dy="1"></feOffset> <feGaussianBlur stdDeviation="0.5"></feGaussianBlur> <feComposite in="SourceGraphic"></feComposite></filter></defs><g fill="none" fill-rule="nonzero" stroke="none" stroke-width="none" stroke-linecap="butt" stroke-linejoin="miter" stroke-miterlimit="10" stroke-dasharray="" stroke-dashoffset="0" font-family="none" font-weight="none" font-size="none" text-anchor="none" style="mix-blend-mode: normal"><path d="M7,43c-1.10457,0 -2,-0.89543 -2,-2v-34c0,-1.10457 0.89543,-2 2,-2h34c1.10457,0 2,0.89543 2,2v34c0,1.10457 -0.89543,2 -2,2z" id="base 1 5 1" fill="#e86e38" stroke-width="1"></path><path d="M12.74314,31.33881c-0.18223,-0.18223 -0.33904,-0.38471 -0.46604,-0.60527c-0.57714,-1.00247 -0.51417,-2.28124 0.14707,-3.51596l-0.93376,-0.93376c-0.65408,-0.65408 -1.0209,-1.45247 -1.0209,-2.2891c0,-1.20505 0.76104,-2.3309 2.04538,-3.06022c-0.74518,-1.28434 -0.84031,-2.685 -0.23778,-3.73145c0.60253,-1.04645 1.87625,-1.63323 3.35085,-1.63323c0,-1.47461 0.58678,-2.69548 1.63323,-3.298c1.04645,-0.60253 2.39426,-0.50739 3.6786,0.23778c0.72943,-1.28434 1.85515,-2.03481 3.06022,-2.03481c0.83963,0 1.64075,0.36433 2.29614,1.01971l0.92519,0.92519c1.23521,-0.662 2.51472,-0.72526 3.51749,-0.14788c0.22058,0.12701 0.42074,0.28149 0.59929,0.46003l3.60133,3.60133c0.12097,0.08983 0.23418,0.18717 0.33877,0.29176l7.72179,7.72179v16.65327c0,1.10457 -0.89543,2 -2,2h-16.59567zM32.37205,32.41951c1.47461,0 2.74833,-0.63952 3.35085,-1.68597c0.5378,-0.93413 0.51978,-2.10818 -0.0202,-3.26295c-1.15479,-0.53998 -2.32892,-0.558 -3.26295,-0.0202c-1.04645,0.60253 -1.63323,1.8234 -1.63323,3.298c-1.47461,0 -2.74833,0.58678 -3.35085,1.63323c-0.53812,0.93459 -0.51976,2.15171 0.02116,3.31618c1.15448,0.53963 2.32821,0.55752 3.26199,0.01982c1.04645,-0.60253 1.63323,-1.8235 1.63323,-3.29811z" fill="url(#color-1)" stroke-width="1"></path><path transform="translate(-8.47319,-8.47319) scale(1.35305,1.35305)" d="M24,33.99609c-0.89066,0 -1.72262,-0.56254 -2.26172,-1.51176c-0.94922,0.55082 -1.94535,0.62117 -2.71875,0.17582c-0.7734,-0.44535 -1.20707,-1.3477 -1.20707,-2.43754c-1.08984,0 -2.03121,-0.47266 -2.47652,-1.24605c-0.44531,-0.77348 -0.375,-1.76953 0.17574,-2.71875c-0.94922,-0.5391 -1.51168,-1.37109 -1.51168,-2.26172c0,-0.89062 0.56246,-1.7227 1.51168,-2.26172c-0.55074,-0.94922 -0.62105,-1.98441 -0.17574,-2.75781c0.44531,-0.7734 1.38668,-1.20707 2.47652,-1.20707c0,-1.08984 0.43367,-1.99215 1.20707,-2.43746c0.7734,-0.44531 1.76953,-0.375 2.71875,0.17574c0.5391,-0.94922 1.37109,-1.50387 2.26172,-1.50387c0.89063,0 1.72262,0.55465 2.26172,1.50387c0.94922,-0.55074 1.94535,-0.62105 2.71875,-0.17574c0.7734,0.44531 1.20707,1.34762 1.20707,2.43746c1.08984,0 2.03121,0.43367 2.47652,1.20707c0.44531,0.7734 0.375,1.80859 -0.17574,2.75781c0.94922,0.53902 1.51168,1.37109 1.51168,2.26172c0,0.89063 -0.56246,1.72262 -1.51168,2.26172c0.55074,0.94922 0.62105,1.94527 0.17574,2.71875c-0.44531,0.7734 -1.38668,1.24605 -2.47652,1.24605c0,1.08984 -0.43367,1.99223 -1.20707,2.43754c-0.7734,0.44535 -1.76953,0.375 -2.71875,-0.17582c-0.5391,0.94922 -1.37105,1.51176 -2.26172,1.51176z" fill="none" stroke-width="0"></path><g id="Capa_1 2" stroke-width="1"><path d="M37.53049,23.99471c0,-1.20506 -0.76104,-2.33089 -2.04538,-3.06022c0.74518,-1.28434 0.84032,-2.68501 0.23779,-3.73146c-0.60253,-1.04645 -1.87625,-1.63323 -3.35086,-1.63323c0,-1.47461 -0.58678,-2.69548 -1.63323,-3.29801c-1.04645,-0.60253 -2.39426,-0.50739 -3.6786,0.23779c-0.72943,-1.28434 -1.85516,-2.03481 -3.06022,-2.03481c-1.20506,0 -2.33079,0.75047 -3.06022,2.03481c-1.28434,-0.74518 -2.63216,-0.84032 -3.6786,-0.23779c-1.04645,0.60253 -1.63323,1.82339 -1.63323,3.29801c-1.47461,0 -2.74833,0.58678 -3.35086,1.63323c-0.60253,1.04645 -0.50739,2.44712 0.23779,3.73146c-1.28434,0.72933 -2.04538,1.85516 -2.04538,3.06022c0,1.20506 0.76104,2.33079 2.04538,3.06022c-0.74518,1.28434 -0.84032,2.63205 -0.23779,3.6786c0.60253,1.04645 1.87625,1.68597 3.35086,1.68597c0,1.47461 0.58678,2.69553 1.63323,3.29811c1.04645,0.60258 2.39426,0.50739 3.6786,-0.23789c0.72943,1.28434 1.8551,2.04548 3.06022,2.04548c1.20511,0 2.33079,-0.76114 3.06022,-2.04548c1.28434,0.74529 2.63216,0.84042 3.6786,0.23789c1.04645,-0.60253 1.63323,-1.8235 1.63323,-3.29811c1.47461,0 2.74833,-0.63953 3.35086,-1.68597c0.60253,-1.04655 0.50739,-2.39426 -0.23779,-3.6786c1.28434,-0.72943 2.04538,-1.85516 2.04538,-3.06022z" fill="#e1e4fb"></path><path d="M35.48512,27.05493c0.74518,1.28434 0.84032,2.63205 0.23779,3.6786c-0.60253,1.04645 -1.87625,1.68597 -3.35086,1.68597c0,1.47461 -0.58678,2.69553 -1.63323,3.29811c-1.04645,0.60258 -2.39426,0.50739 -3.6786,-0.23789c-0.72943,1.28434 -1.85516,2.04548 -3.06022,2.04548v-27.05042c1.20506,0 2.33079,0.75047 3.06022,2.03481c1.28434,-0.74518 2.63216,-0.84032 3.6786,-0.23779c1.04645,0.60253 1.63323,1.82339 1.63323,3.29801c1.47461,0 2.74833,0.58678 3.35086,1.63323c0.60253,1.04645 0.50739,2.44712 -0.23779,3.73146c1.28434,0.72933 2.04538,1.85516 2.04538,3.06022c0,1.20506 -0.76104,2.33079 -2.04538,3.06022z" fill="#c5c9f7"></path><path d="M31.65852,22.01271c0,4.40793 -3.36148,8.05482 -7.65852,8.46708c-0.28541,0.03176 -0.55491,0.04762 -0.84042,0.04762c-3.85302,0 -6.97661,-3.12369 -6.97661,-6.97671c0,-3.15535 2.58454,-5.77689 5.73989,-5.77689c0.74518,0 1.4587,0.22727 2.07714,0.54439c1.56975,0.76104 2.66382,2.37841 2.66382,4.24942c0,1.74422 -1.12583,3.20297 -2.66382,3.72622c-0.3964,0.14265 -0.82457,0.22193 -1.28434,0.22193c-1.83925,0 -3.32972,-1.49047 -3.32972,-3.31386c0,-1.55395 1.26848,-2.82243 2.82232,-2.82243c0.42817,0 0.7928,0.36474 0.7928,0.7928c0,0.44402 -0.36464,0.7928 -0.7928,0.7928c-0.68181,0 -1.23672,0.55501 -1.23672,1.23682c0,0.95131 0.77695,1.72826 1.74411,1.72826c0.47568,0 0.9197,-0.14265 1.28434,-0.3964c0.65005,-0.41226 1.07821,-1.14158 1.07821,-1.96615c0,-0.95131 -0.41226,-1.80759 -1.07821,-2.37841c-0.55491,-0.49154 -1.28434,-0.77695 -2.07714,-0.77695c-2.28327,0 -4.15428,1.8551 -4.15428,4.13843c0,2.96508 2.42592,5.39111 5.391,5.39111c0.28551,0 0.57087,-0.01586 0.84042,-0.04762c3.4091,-0.42806 6.07292,-3.34563 6.07292,-6.88147c0,-0.44402 0.36464,-0.7928 0.7928,-0.7928c0.44392,0 0.7928,0.34878 0.7928,0.7928z" fill="#fd4e26"></path><g fill="#fd3018"><path d="M31.65852,22.01271c0,4.40793 -3.36148,8.05482 -7.65852,8.46708v-1.5856c3.4091,-0.42806 6.07292,-3.34563 6.07292,-6.88147c0,-0.44402 0.36464,-0.7928 0.7928,-0.7928c0.44392,0 0.7928,0.34878 0.7928,0.7928z"></path><path d="M26.66382,22.56762c0,1.74422 -1.12583,3.20297 -2.66382,3.72622v-1.76007c0.65005,-0.41226 1.07821,-1.14158 1.07821,-1.96615c0,-0.95131 -0.41226,-1.80759 -1.07821,-2.37841v-1.87101c1.56975,0.76109 2.66382,2.37841 2.66382,4.24942z"></path></g><g fill="#000000" font-family="Roboto, sans-serif" font-weight="400" font-size="14" text-anchor="start"></g><g fill="#000000" font-family="Roboto, sans-serif" font-weight="400" font-size="14" text-anchor="start"></g><g fill="#000000" font-family="Roboto, sans-serif" font-weight="400" font-size="14" text-anchor="start"></g><g fill="#000000" font-family="Roboto, sans-serif" font-weight="400" font-size="14" text-anchor="start"></g><g fill="#000000" font-family="Roboto, sans-serif" font-weight="400" font-size="14" text-anchor="start"></g><g fill="#000000" font-family="Roboto, sans-serif" font-weight="400" font-size="14" text-anchor="start"></g><g fill="#000000" font-family="Roboto, sans-serif" font-weight="400" font-size="14" text-anchor="start"></g><g fill="#000000" font-family="Roboto, sans-serif" font-weight="400" font-size="14" text-anchor="start"></g><g fill="#000000" font-family="Roboto, sans-serif" font-weight="400" font-size="14" text-anchor="start"></g><g fill="#000000" font-family="Roboto, sans-serif" font-weight="400" font-size="14" text-anchor="start"></g><g fill="#000000" font-family="Roboto, sans-serif" font-weight="400" font-size="14" text-anchor="start"></g><g fill="#000000" font-family="Roboto, sans-serif" font-weight="400" font-size="14" text-anchor="start"></g><g fill="#000000" font-family="Roboto, sans-serif" font-weight="400" font-size="14" text-anchor="start"></g><g fill="#000000" font-family="Roboto, sans-serif" font-weight="400" font-size="14" text-anchor="start"></g><g fill="#000000" font-family="Roboto, sans-serif" font-weight="400" font-size="14" text-anchor="start"></g></g><path d="M2,24c0,-12.15026 9.84974,-22 22,-22c12.15026,0 22,9.84974 22,22c0,12.15026 -9.84974,22 -22,22c-12.15026,0 -22,-9.84974 -22,-22z" id="base 1 1 1" fill="none" stroke-width="1"></path><g id="Capa_1 1 1" fill="#000000" stroke-width="1" font-family="Roboto, sans-serif" font-weight="400" font-size="14" text-anchor="start"><g></g><g></g><g></g><g></g><g></g><g></g><g></g><g></g><g></g><g></g><g></g><g></g><g></g><g></g><g></g><g></g></g><path d="M13,36v-12h30v12z" id="banner 1" fill="#1b2124" stroke-width="1" filter="url(#dropshadow-banner)"></path><text x="28" y="33" fill="#ffffff" stroke-width="1" font-family="sans-serif" font-weight="bold" font-size="8" text-anchor="middle">DEV</text><rect x="2" y="2" width="44" height="22" fill="none" stroke-width="1"></rect><path d="M2,24v-22h44v22z" fill="none" stroke-width="1"></path><path d="M2,24v-22h44v22z" fill="none" stroke-width="1"></path><path d="M2,24v-22h44v22z" fill="none" stroke-width="1"></path><path d="M2,24v-22h44v22z" fill="none" stroke-width="1"></path></g></svg>